<?xml version="1.0" encoding="utf-8"?>
<!-- Generator: Adobe Illustrator 19.2.0, SVG Export Plug-In . SVG Version: 6.00 Build 0)  -->
<svg version="1.1" id="Layer_1" xmlns="http://www.w3.org/2000/svg" xmlns:xlink="http://www.w3.org/1999/xlink" x="0px" y="0px"
	 viewBox="0 0 262.3 37" style="enable-background:new 0 0 262.3 37;" xml:space="preserve">
<style type="text/css">
	.st0{enable-background:new    ;}
	.st1{fill:#36383A;}
	.st2{fill:#00AEEF;}
</style>
<title>PT_Logo</title>
<g class="st0">
	<path class="st1" d="M14.7,27H2.4V5.3h4.4v17.8h8V27z"/>
	<path class="st1" d="M17.1,9V4.7h4.3V9H17.1z M17.1,27v-16h4.3v16H17.1z"/>
	<path class="st1" d="M39.8,29c0,1.8-0.7,3.2-2.1,4c-1.4,0.9-3.3,1.3-5.7,1.3s-4.2-0.3-5.5-1c-1.3-0.6-1.9-1.8-1.9-3.5
		c0-1.3,0.8-2.6,2.3-3.8c-0.8-0.5-1.2-1.3-1.2-2.4c0-0.4,0.3-1.1,1-2.1l0.3-0.4c-1.4-1-2.2-2.6-2.2-4.6s0.6-3.5,1.8-4.4
		c1.2-0.9,2.8-1.4,4.9-1.4c0.9,0,1.8,0.1,2.7,0.3l0.5,0.1l5.1-0.2v3.4l-2.4-0.2c0.5,0.7,0.7,1.4,0.7,2.2c0,2.1-0.5,3.6-1.6,4.4
		c-1.1,0.8-2.8,1.2-5.1,1.2c-0.5,0-0.9,0-1.3-0.1c-0.2,0.6-0.3,1-0.3,1.4s0.2,0.6,0.5,0.7c0.4,0.1,1.2,0.2,2.6,0.2
		c2.7,0,4.5,0.4,5.5,1.1C39.3,25.9,39.8,27.2,39.8,29z M28.7,29.5c0,0.9,1.1,1.4,3.4,1.4c2.2,0,3.4-0.5,3.4-1.6
		c0-0.6-0.2-0.9-0.6-1.1s-1.2-0.2-2.4-0.3l-2.9-0.2C29,28.2,28.7,28.8,28.7,29.5z M29,16.4c0,1.6,0.8,2.3,2.4,2.3s2.4-0.8,2.4-2.3
		s-0.8-2.3-2.4-2.3S29,14.8,29,16.4z"/>
	<path class="st1" d="M46.6,27h-4.3V4.7h4.3v7.2c1.5-0.8,2.8-1.2,4-1.2c2.1,0,3.6,0.6,4.4,1.9c0.8,1.3,1.2,3.2,1.2,5.8V27h-4.3v-8.6
		c0-1.3-0.2-2.3-0.5-3s-1-1-1.9-1c-0.8,0-1.7,0.1-2.5,0.4L46.6,15V27z"/>
	<path class="st1" d="M68.9,14.7h-3.9v6.5c0,0.6,0,1.1,0,1.4c0,0.3,0.1,0.5,0.4,0.7c0.2,0.2,0.5,0.3,0.9,0.3l2.4-0.1l0.2,3.4
		c-1.4,0.3-2.5,0.5-3.3,0.5c-1.9,0-3.2-0.4-3.9-1.3c-0.7-0.9-1.1-2.5-1.1-4.8v-6.6h-1.9v-3.6h1.9V6.6h4.3v4.4h3.9V14.7z"/>
</g>
<g class="st0">
	<path class="st1" d="M72.4,4.9h8c2.2,0,3.8,0.5,4.9,1.4c1.1,0.9,1.6,2.3,1.6,4.3c0,1.4-0.2,2.5-0.7,3.2s-1.2,1.4-2.1,1.8
		c2.3,0.8,3.5,2.5,3.5,5.2c0,2.2-0.6,3.8-1.8,4.8c-1.2,1-2.9,1.4-5.1,1.4h-8.4V4.9z M80.3,7.1h-5.5v7.6h5.7c1.4,0,2.4-0.3,3-1
		c0.6-0.6,0.9-1.6,0.9-2.9s-0.3-2.3-1-2.8C82.8,7.4,81.7,7.1,80.3,7.1z M80.5,16.9h-5.7v8h5.9c1.4,0,2.5-0.3,3.3-0.9
		s1.1-1.7,1.1-3.2c0-0.8-0.2-1.5-0.5-2c-0.3-0.6-0.7-0.9-1.2-1.2C82.5,17.1,81.5,16.9,80.5,16.9z"/>
	<path class="st1" d="M91.8,27V4.1h2.4V27H91.8z"/>
	<path class="st1" d="M109,11.1h2.4v16H109v-1.1c-1.6,1-3.2,1.4-4.7,1.4c-2.2,0-3.6-0.6-4.3-1.7c-0.7-1.1-1.1-3.2-1.1-6.3v-8.3h2.4
		v8.3c0,2.3,0.2,3.9,0.6,4.7c0.4,0.8,1.3,1.2,2.7,1.2c0.7,0,1.4-0.1,2.1-0.3c0.7-0.2,1.3-0.4,1.7-0.6L109,24V11.1z"/>
	<path class="st1" d="M126.8,25l0.9-0.1l0.1,1.9c-2.4,0.3-4.5,0.5-6.2,0.5c-2.3,0-3.9-0.7-4.9-2c-1-1.3-1.4-3.4-1.4-6.2
		c0-5.6,2.2-8.4,6.7-8.4c2.2,0,3.8,0.6,4.8,1.8c1.1,1.2,1.6,3.1,1.6,5.7l-0.1,1.8h-10.5c0,1.8,0.3,3.1,1,3.9
		c0.6,0.9,1.8,1.3,3.3,1.3C123.6,25.2,125.2,25.2,126.8,25z M126,18.1c0-2-0.3-3.3-0.9-4.2c-0.6-0.8-1.7-1.2-3.1-1.2
		c-1.4,0-2.5,0.4-3.2,1.3c-0.7,0.9-1.1,2.2-1.1,4.1H126z"/>
</g>
<g class="st0">
	<path class="st2" d="M139.3,34.1v-30h2.4v30H139.3z"/>
	<path class="st2" d="M153.9,27V4.9h13.4v2.2h-11v7.6h9.1v2.1h-9.1v8h11V27H153.9z"/>
	<path class="st2" d="M169.6,11.1h2.6l3.9,6.3l3.9-6.3h2.6l-5.1,7.9l5,8h-2.6l-3.9-6.2l-3.9,6.2h-2.6l5-8L169.6,11.1z"/>
	<path class="st2" d="M185.6,34.1V11.1h2.4v1.1c1.6-1,3.2-1.5,4.8-1.5c2,0,3.5,0.6,4.4,1.9c0.9,1.3,1.4,3.4,1.4,6.4
		c0,3-0.5,5.1-1.6,6.4c-1.1,1.3-2.9,1.9-5.3,1.9c-1.3,0-2.5-0.1-3.6-0.4v7.1H185.6z M192.4,12.9c-0.6,0-1.3,0.1-2.1,0.3
		c-0.7,0.2-1.3,0.4-1.7,0.6l-0.6,0.3v10.8c1.5,0.2,2.7,0.4,3.4,0.4c1.7,0,2.9-0.5,3.6-1.5c0.7-1,1-2.6,1-4.8c0-2.2-0.3-3.8-0.9-4.7
		C194.5,13.3,193.6,12.9,192.4,12.9z"/>
	<path class="st2" d="M202.6,27V4.1h2.4V27H202.6z"/>
	<path class="st2" d="M209.1,19c0-2.9,0.5-5,1.6-6.3c1-1.3,2.8-1.9,5.3-1.9c2.5,0,4.2,0.6,5.3,1.9s1.5,3.4,1.5,6.3
		c0,2.9-0.5,5-1.5,6.4s-2.8,2-5.4,2s-4.4-0.7-5.4-2C209.6,24,209.1,21.9,209.1,19z M211.6,19c0,2.3,0.3,4,0.8,4.9
		c0.6,0.9,1.7,1.4,3.5,1.4c1.8,0,3-0.5,3.5-1.4c0.6-0.9,0.8-2.6,0.8-4.9c0-2.3-0.3-4-0.9-4.8c-0.6-0.9-1.8-1.3-3.4-1.3
		c-1.7,0-2.8,0.4-3.5,1.3S211.6,16.6,211.6,19z"/>
</g>
<g class="st0">
	<path class="st2" d="M226.7,27v-16h2.4v2.2c1.9-1.3,3.8-2.1,5.8-2.5v2.4c-0.9,0.2-1.8,0.4-2.8,0.8c-1,0.4-1.7,0.7-2.2,1l-0.8,0.4
		V27H226.7z"/>
</g>
<g class="st0">
	<path class="st2" d="M248.2,25l0.9-0.1l0.1,1.9c-2.4,0.3-4.5,0.5-6.2,0.5c-2.3,0-3.9-0.7-4.9-2c-1-1.3-1.4-3.4-1.4-6.2
		c0-5.6,2.2-8.4,6.7-8.4c2.2,0,3.8,0.6,4.8,1.8c1.1,1.2,1.6,3.1,1.6,5.7l-0.1,1.8h-10.5c0,1.8,0.3,3.1,1,3.9
		c0.6,0.9,1.8,1.3,3.3,1.3S246.6,25.2,248.2,25z M247.4,18.1c0-2-0.3-3.3-0.9-4.2c-0.6-0.8-1.7-1.2-3.1-1.2c-1.4,0-2.5,0.4-3.2,1.3
		c-0.7,0.9-1.1,2.2-1.1,4.1H247.4z"/>
	<path class="st2" d="M253.5,27v-16h2.4v2.2c1.9-1.3,3.8-2.1,5.8-2.5v2.4c-0.9,0.2-1.8,0.4-2.8,0.8c-1,0.4-1.7,0.7-2.2,1l-0.8,0.4
		V27H253.5z"/>
</g>
<path class="st1" d="M128.2,4.3c1.1,0,2,0.8,2,1.9c0,0.1,0,0.1,0,0.2c0,1.1-0.9,2-2,2s-2-0.9-2-2c-0.1-1.1,0.7-2,1.8-2.1
	C128,4.3,128.1,4.3,128.2,4.3z M128.2,8c0.9,0.1,1.6-0.6,1.7-1.5c0-0.1,0-0.2,0-0.3c0-0.9-0.7-1.7-1.7-1.7s-1.7,0.7-1.7,1.7
	c0,0,0,0,0,0c-0.1,0.9,0.6,1.6,1.4,1.7C128,8,128.1,8,128.2,8L128.2,8z M128.6,6.4l0.5,0.9h-0.4l-0.4-0.9h-0.4v0.9h-0.3V5.2h1
	c0.3-0.1,0.6,0.2,0.7,0.5S129,6.4,128.6,6.4C128.6,6.4,128.6,6.4,128.6,6.4L128.6,6.4z M128.4,5.6h-0.6v0.6h0.6
	c0.2,0,0.3-0.1,0.4-0.2c0,0,0,0,0-0.1C128.7,5.7,128.6,5.6,128.4,5.6C128.5,5.6,128.4,5.6,128.4,5.6L128.4,5.6z"/>
</svg>
