<?xml version="1.0" encoding="utf-8"?>
<!-- Generator: Adobe Illustrator 19.2.0, SVG Export Plug-In . SVG Version: 6.00 Build 0)  -->
<svg version="1.1" id="Layer_1" xmlns="http://www.w3.org/2000/svg" xmlns:xlink="http://www.w3.org/1999/xlink" x="0px" y="0px"
	 viewBox="0 0 820 320.1" style="enable-background:new 0 0 820 320.1;" xml:space="preserve">
<style type="text/css">
	.st0{opacity:0.2;fill:#00ADEF;enable-background:new    ;}
	.st1{enable-background:new    ;}
	.st2{fill:none;stroke:#000000;stroke-width:3;stroke-linejoin:round;}
	.st3{fill:none;stroke:#000000;stroke-width:2;stroke-linejoin:round;stroke-dasharray:8,8;}
	.st4{opacity:0.6;fill:none;stroke:#00ADEF;stroke-width:2;stroke-linecap:round;stroke-linejoin:round;enable-background:new    ;}
	.st5{fill:none;stroke:#000000;stroke-width:2;stroke-linecap:round;stroke-linejoin:round;}
	.st6{fill:none;stroke:#000000;stroke-width:2;stroke-miterlimit:10;}
</style>
<title>LightBlue Platform diagram</title>
<rect x="361" class="st0" width="288" height="297"/>
<rect x="388" y="72" class="st0" width="261" height="99"/>
<rect x="361" y="189" class="st0" width="81" height="54"/>
<g class="st1">
	<path d="M390.4,214.8c0,2.4-1,4.3-4.2,4.3c-3.2,0-4.2-1.9-4.2-4.3v-7.1h1.4v7.2c0,1.7,0.5,3,2.8,3c2.3,0,2.8-1.3,2.8-3v-7.2h1.4
		V214.8z"/>
</g>
<g class="st1">
	<path d="M399.6,216.2h-5.2l-1,2.7h-1.5l4.3-11.2h1.5l4.3,11.2h-1.5L399.6,216.2z M394.8,215h4.4l-2.2-6L394.8,215z"/>
</g>
<g class="st1">
	<path d="M408.1,214.1h-2.7v4.8H404v-11.2h4.4c2.4,0,4.2,0.8,4.2,3.2c0,2-1.2,2.9-3,3.2l3.1,4.8H411L408.1,214.1z M408.4,208.8h-3
		v4.2h2.9c1.6,0,2.8-0.5,2.8-2.1C411.1,209.4,409.9,208.8,408.4,208.8z"/>
</g>
<g class="st1">
	<path d="M418.5,208.9v10h-1.4v-10h-3.5v-1.2h8.4v1.2H418.5z"/>
</g>
<rect x="1" class="st0" width="288" height="108"/>
<g class="st1">
	<path d="M115.7,52.8c0,2.4-1,4.3-4.2,4.3c-3.2,0-4.2-1.9-4.2-4.3v-7.1h1.4v7.2c0,1.7,0.5,3,2.8,3c2.3,0,2.8-1.3,2.8-3v-7.2h1.4
		V52.8z"/>
</g>
<g class="st1">
	<path d="M124.7,54.7c0,1.6-1.4,2.3-3.1,2.3c-1.5,0-2.9-0.6-3.7-1l0.6-1c0.8,0.4,2.1,0.9,3.1,0.9c0.9,0,1.8-0.4,1.8-1.2
		c0-1-1.4-1.4-2.5-1.6c-1.3-0.4-2.8-0.9-2.8-2.5c0-1.5,1.2-2.3,2.9-2.3c1.3,0,2.5,0.5,3.3,0.8l-0.6,0.9c-0.8-0.4-1.9-0.7-2.7-0.7
		c-1,0-1.7,0.4-1.7,1.2c0,1,1.4,1.3,2.3,1.5C123.4,52.6,124.7,53.3,124.7,54.7z"/>
	<path d="M127.5,53c0.1,1.8,1.1,3,2.4,3c1.1,0,2.4-0.7,3.1-1.1l0.6,0.9c-0.8,0.4-2.2,1.3-3.8,1.3c-2,0-3.7-1.5-3.7-4.4
		c0-2.8,1.6-4.4,3.9-4.4c2.4,0,3.6,1.5,3.6,3.6c0,0.6-0.1,1.1-0.1,1.1H127.5z M127.5,52.2h4.8c0-2-0.8-2.8-2.3-2.8
		C128.6,49.3,127.7,50.4,127.5,52.2z"/>
</g>
<g class="st1">
	<path d="M137.3,50.3c0.1-0.3,1-2,3.2-1.9v1.3c-2.9,0-3.2,2.6-3.2,2.6v4.6H136v-8.4h1.3V50.3z"/>
</g>
<g class="st1">
	<path d="M154.1,48.2c-0.9-0.6-2.2-1.4-3.5-1.4c-1.8,0-3.1,1.7-3.1,4.5s1.3,4.5,3.1,4.5c1.3,0,2.5-0.8,3.5-1.4l0.7,1
		c-1.2,0.8-2.7,1.6-4.3,1.6c-2.4,0-4.4-1.7-4.4-5.8c0-4,2-5.8,4.4-5.8c1.6,0,3.1,0.8,4.3,1.6L154.1,48.2z"/>
</g>
<g class="st1">
	<path d="M160.2,57.1c-2.6,0-4-1.6-4-4.4c0-2.7,1.4-4.4,4-4.4c2.6,0,4,1.7,4,4.4C164.1,55.4,162.7,57.1,160.2,57.1z M160.2,49.4
		c-1.8,0-2.6,1.3-2.6,3.3c0,2,0.8,3.3,2.6,3.3c1.8,0,2.6-1.3,2.6-3.3C162.8,50.7,162,49.4,160.2,49.4z"/>
	<path d="M172,56.9v-1.1c-0.7,0.6-1.6,1.3-3,1.3c-1.8,0-3.2-1.3-3.2-4.4c0-3.1,1.4-4.4,3.2-4.4c1.3,0,2.3,0.7,3,1.3v-4.4h1.3v11.7
		H172z M172,54.6v-3.8c-0.7-0.8-1.6-1.4-2.7-1.4c-1.4,0-2.1,1.2-2.1,3.3c0,2,0.7,3.3,2.1,3.3C170.4,56,171.4,55.4,172,54.6z"/>
	<path d="M176.9,53c0.1,1.8,1.1,3,2.4,3c1.1,0,2.4-0.7,3.1-1.1l0.6,0.9c-0.8,0.4-2.2,1.3-3.8,1.3c-2,0-3.7-1.5-3.7-4.4
		c0-2.8,1.6-4.4,3.9-4.4c2.4,0,3.6,1.5,3.6,3.6c0,0.6-0.1,1.1-0.1,1.1H176.9z M176.9,52.2h4.8c0-2-0.8-2.8-2.3-2.8
		C177.9,49.3,177,50.4,176.9,52.2z"/>
</g>
<rect x="1" y="108" class="st0" width="288" height="108"/>
<g class="st1">
	<path d="M58.4,162.2h-5.2l-1,2.7h-1.5l4.3-11.2h1.5l4.3,11.2h-1.5L58.4,162.2z M53.6,161H58l-2.2-6.1L53.6,161z"/>
</g>
<g class="st1">
	<path d="M64,158.3c0.1-0.3,1-2,3.2-1.9v1.3c-2.9,0-3.2,2.6-3.2,2.6v4.6h-1.3v-8.4H64V158.3z"/>
</g>
<g class="st1">
	<path d="M74.6,164.9v-1.1c-0.7,0.6-1.6,1.3-3,1.3c-1.8,0-3.2-1.3-3.2-4.4c0-3.1,1.4-4.4,3.2-4.4c1.3,0,2.3,0.7,3,1.3v-4.4h1.3v11.7
		H74.6z M74.6,162.6v-3.8c-0.7-0.8-1.6-1.4-2.7-1.4c-1.4,0-2.1,1.2-2.1,3.3c0,2,0.7,3.3,2.1,3.3C72.9,164,73.9,163.4,74.6,162.6z"/>
	<path d="M84.3,163.7c-0.6,0.5-2,1.3-3.5,1.3c-1.8,0-2.4-1.2-2.4-2.6v-6h1.3v5.7c0,1,0.3,1.7,1.5,1.7c1.2,0,2.5-0.9,3.1-1.4v-6.1
		h1.3v8.4h-1.3V163.7z"/>
	<path d="M88.1,153.3h1.5v1.6h-1.5V153.3z M88.2,164.9v-8.4h1.3v8.4H88.2z"/>
	<path d="M93.5,157.7c0.6-0.5,2-1.4,3.5-1.4c1.8,0,2.4,1.2,2.4,2.6v6H98v-5.7c0-1-0.3-1.7-1.5-1.7c-1.2,0-2.5,0.9-3.1,1.4v6.1h-1.3
		v-8.4h1.3V157.7z"/>
	<path d="M105.4,165.1c-2.6,0-4-1.6-4-4.4c0-2.7,1.4-4.4,4-4.4c2.6,0,4,1.7,4,4.4C109.3,163.4,107.9,165.1,105.4,165.1z
		 M105.4,157.4c-1.8,0-2.6,1.3-2.6,3.3c0,2,0.8,3.3,2.6,3.3c1.8,0,2.6-1.3,2.6-3.3C108,158.7,107.2,157.4,105.4,157.4z"/>
	<path d="M120.2,155.9v3.1h3.5v1.1h-3.5v3.1h-1.1v-3.1h-3.5V159h3.5v-3.1H120.2z"/>
	<path d="M135.4,164.9h-4.7v-11.2h3.9c2.5,0,3.9,1,3.9,2.7c0,1.6-1.2,2.4-1.9,2.5c0.9,0.1,2.5,0.8,2.5,2.9
		C139.2,163.8,137.9,164.9,135.4,164.9z M134.7,154.8h-2.5v3.7h2.4c1.5,0,2.6-0.6,2.6-1.9C137.2,155.6,136.4,154.8,134.7,154.8z
		 M134.7,159.6h-2.5v4.2h3.1c1.7,0,2.5-0.9,2.5-2.1C137.8,160.3,136.7,159.6,134.7,159.6z"/>
	<path d="M142.2,161c0.1,1.8,1.1,3,2.4,3c1.1,0,2.4-0.7,3.1-1.1l0.6,0.9c-0.8,0.4-2.2,1.3-3.8,1.3c-2,0-3.7-1.5-3.7-4.4
		c0-2.8,1.6-4.4,3.9-4.4c2.4,0,3.6,1.5,3.6,3.6c0,0.6-0.1,1.1-0.1,1.1H142.2z M142.2,160.2h4.8c0-2-0.8-2.8-2.3-2.8
		C143.2,157.3,142.3,158.4,142.2,160.2z"/>
</g>
<g class="st1">
	<path d="M156.4,163.8c-0.6,0.6-1.7,1.3-3.1,1.3c-1.4,0-2.8-0.8-2.8-2.7c0-1.9,1.4-2.7,2.9-2.7c1,0,2.4,0.3,3,0.4v-0.9
		c0-1.2-0.4-1.8-1.8-1.8c-0.9,0-2,0.3-3.1,0.7l-0.5-1c1.4-0.5,2.7-0.8,3.8-0.8c1.8,0,2.9,0.8,2.9,2.8v5.8h-1.3V163.8z M156.4,162.7
		v-1.8c-0.6-0.1-1.7-0.4-2.5-0.4c-1.5,0-2,0.8-2,1.8c0,1.2,0.8,1.6,1.8,1.6C154.7,164,155.6,163.4,156.4,162.7z"/>
</g>
<g class="st1">
	<path d="M161.8,157.7c0.6-0.5,2-1.4,3.5-1.4c1.8,0,2.4,1.2,2.4,2.6v6h-1.3v-5.7c0-1-0.3-1.7-1.5-1.7c-1.2,0-2.5,0.9-3.1,1.4v6.1
		h-1.3v-8.4h1.3V157.7z"/>
	<path d="M174.8,164.9v-11.2h1.4v10h5.5v1.2H174.8z"/>
	<path d="M183.3,153.3h1.5v1.6h-1.5V153.3z M183.3,164.9v-8.4h1.3v8.4H183.3z"/>
	<path d="M187.3,153.2h1.3v4.4c0.7-0.6,1.6-1.3,3-1.3c1.8,0,3.2,1.3,3.2,4.4c0,3.1-1.4,4.4-3.2,4.4c-1.3,0-2.3-0.7-3-1.3v1.1h-1.3
		V153.2z M188.6,158.8v3.8c0.7,0.7,1.6,1.3,2.7,1.3c1.4,0,2.1-1.2,2.1-3.3c0-2-0.7-3.3-2.1-3.3C190.2,157.4,189.3,158,188.6,158.8z"
		/>
</g>
<g class="st1">
	<path d="M198.7,158.3c0.1-0.3,1-2,3.2-1.9v1.3c-2.9,0-3.2,2.6-3.2,2.6v4.6h-1.3v-8.4h1.3V158.3z"/>
</g>
<g class="st1">
	<path d="M209,163.8c-0.6,0.6-1.7,1.3-3.1,1.3c-1.4,0-2.8-0.8-2.8-2.7c0-1.9,1.4-2.7,2.9-2.7c1,0,2.4,0.3,3,0.4v-0.9
		c0-1.2-0.4-1.8-1.8-1.8c-0.9,0-2,0.3-3.1,0.7l-0.5-1c1.4-0.5,2.7-0.8,3.8-0.8c1.8,0,2.9,0.8,2.9,2.8v5.8H209V163.8z M209,162.7
		v-1.8c-0.6-0.1-1.7-0.4-2.5-0.4c-1.5,0-2,0.8-2,1.8c0,1.2,0.8,1.6,1.8,1.6C207.3,164,208.2,163.4,209,162.7z"/>
</g>
<g class="st1">
	<path d="M214.3,158.3c0.1-0.3,1-2,3.2-1.9v1.3c-2.9,0-3.2,2.6-3.2,2.6v4.6H213v-8.4h1.3V158.3z"/>
	<path d="M219.1,153.3h1.5v1.6h-1.5V153.3z M219.2,164.9v-8.4h1.3v8.4H219.2z"/>
	<path d="M224,161c0.1,1.8,1.1,3,2.4,3c1.1,0,2.4-0.7,3.1-1.1l0.6,0.9c-0.8,0.4-2.2,1.3-3.8,1.3c-2,0-3.7-1.5-3.7-4.4
		c0-2.8,1.6-4.4,3.9-4.4c2.4,0,3.6,1.5,3.6,3.6c0,0.6-0.1,1.1-0.1,1.1H224z M224,160.2h4.8c0-2-0.8-2.8-2.3-2.8
		C225.1,157.3,224.2,158.4,224,160.2z"/>
	<path d="M238.5,162.7c0,1.6-1.4,2.3-3.1,2.3c-1.5,0-2.9-0.6-3.7-1l0.6-1c0.8,0.4,2.1,0.9,3.1,0.9c0.9,0,1.8-0.4,1.8-1.2
		c0-1-1.4-1.4-2.5-1.6c-1.3-0.4-2.8-0.9-2.8-2.5c0-1.5,1.2-2.3,2.9-2.3c1.3,0,2.5,0.5,3.3,0.8l-0.6,0.9c-0.8-0.4-1.9-0.7-2.7-0.7
		c-1,0-1.7,0.4-1.7,1.2c0,1,1.4,1.3,2.3,1.5C237.3,160.6,238.5,161.3,238.5,162.7z"/>
</g>
<polyline class="st2" points="361,216 325,216 289,216 "/>
<g class="st1">
	<path d="M137.8,95.5h-4.4V85h3.7c2.3,0,3.6,0.9,3.6,2.6c0,1.5-1.1,2.2-1.8,2.4c0.9,0.1,2.4,0.8,2.4,2.8
		C141.3,94.4,140.1,95.5,137.8,95.5z M137.1,86.1h-2.4v3.4h2.3c1.4,0,2.4-0.5,2.4-1.7C139.4,86.8,138.7,86.1,137.1,86.1z
		 M137.1,90.5h-2.4v4h2.9c1.6,0,2.3-0.8,2.3-2C140,91.2,139,90.5,137.1,90.5z"/>
	<path d="M144.1,91.9c0.1,1.7,1,2.8,2.3,2.8c1.1,0,2.2-0.6,2.9-1.1l0.6,0.8c-0.7,0.4-2,1.2-3.6,1.2c-1.9,0-3.5-1.4-3.5-4.1
		c0-2.7,1.5-4.1,3.7-4.1c2.2,0,3.3,1.4,3.3,3.4c0,0.6-0.1,1-0.1,1H144.1z M144.1,91.1h4.5c0-1.8-0.8-2.7-2.1-2.7
		C145.1,88.4,144.2,89.4,144.1,91.1z"/>
	<path d="M156.9,94.5c-0.6,0.6-1.6,1.2-2.9,1.2c-1.3,0-2.6-0.7-2.6-2.5c0-1.8,1.3-2.6,2.7-2.6c0.9,0,2.2,0.3,2.8,0.4v-0.9
		c0-1.1-0.4-1.7-1.6-1.7c-0.9,0-1.8,0.3-2.9,0.7l-0.4-0.9c1.3-0.5,2.5-0.8,3.5-0.8c1.7,0,2.7,0.7,2.7,2.6v5.4h-1.2V94.5z
		 M156.9,93.5v-1.7c-0.5-0.1-1.6-0.3-2.4-0.3c-1.4,0-1.9,0.8-1.9,1.7c0,1.1,0.7,1.5,1.7,1.5C155.4,94.6,156.2,94.1,156.9,93.5z"/>
	<path d="M161.8,88.7c0.6-0.4,1.9-1.3,3.2-1.3c1.7,0,2.2,1.1,2.2,2.4v5.6H166v-5.4c0-0.9-0.3-1.6-1.4-1.6c-1.1,0-2.4,0.8-2.9,1.3
		v5.7h-1.2v-7.9h1.2V88.7z"/>
</g>
<g class="st1">
	<path d="M179.4,92.9h-4.9l-0.9,2.6h-1.4l4.1-10.5h1.4l4.1,10.5h-1.4L179.4,92.9z M174.9,91.9h4.1l-2-5.7L174.9,91.9z"/>
</g>
<g class="st1">
	<path d="M184.4,89.3c0.1-0.3,0.9-1.9,3-1.8v1.2c-2.7,0-3,2.5-3,2.5v4.3h-1.2v-7.9h1.2V89.3z"/>
</g>
<g class="st1">
	<path d="M193.9,95.5v-1c-0.6,0.6-1.5,1.2-2.8,1.2c-1.7,0-3-1.2-3-4.1c0-2.9,1.3-4.1,3-4.1c1.2,0,2.2,0.6,2.8,1.2v-4.1h1.2v10.9
		H193.9z M193.9,93.4v-3.6c-0.6-0.7-1.5-1.3-2.5-1.3c-1.3,0-2,1.2-2,3.1c0,1.9,0.7,3.1,2,3.1C192.4,94.6,193.3,94.1,193.9,93.4z"/>
	<path d="M203,94.4c-0.6,0.4-1.9,1.3-3.3,1.3c-1.7,0-2.2-1.1-2.2-2.4v-5.6h1.2V93c0,0.9,0.3,1.6,1.4,1.6c1.1,0,2.3-0.8,2.9-1.3v-5.7
		h1.2v7.9H203V94.4z"/>
	<path d="M206.6,84.6h1.4v1.5h-1.4V84.6z M206.7,95.5v-7.9h1.2v7.9H206.7z"/>
	<path d="M211.6,88.7c0.6-0.4,1.9-1.3,3.2-1.3c1.7,0,2.2,1.1,2.2,2.4v5.6h-1.2v-5.4c0-0.9-0.3-1.6-1.4-1.6c-1.1,0-2.4,0.8-2.9,1.3
		v5.7h-1.2v-7.9h1.2V88.7z"/>
	<path d="M222.8,95.7c-2.4,0-3.7-1.5-3.7-4.1s1.3-4.1,3.7-4.1c2.4,0,3.7,1.6,3.7,4.1S225.2,95.7,222.8,95.7z M222.8,88.5
		c-1.7,0-2.4,1.2-2.4,3.1s0.7,3.1,2.4,3.1c1.7,0,2.4-1.2,2.4-3.1S224.5,88.5,222.8,88.5z"/>
</g>
<g class="st1">
	<path d="M238.2,92.9h-4.9l-0.9,2.6H231L235,85h1.4l4.1,10.5h-1.4L238.2,92.9z M233.7,91.9h4.1l-2-5.7L233.7,91.9z"/>
	<path d="M246,91.4h-2.5v4.1h-1.3V85h3.8c2.3,0,3.9,0.8,3.9,3.2C250,90.6,248.3,91.4,246,91.4z M246.1,86.1h-2.5v4.2h2.5
		c1.4,0,2.6-0.5,2.6-2.1C248.6,86.6,247.5,86.1,246.1,86.1z"/>
	<path d="M251.9,95.5V85h1.3v10.5H251.9z"/>
</g>
<rect x="1" y="216" class="st0" width="288" height="81"/>
<g class="st1">
	<path d="M108.6,269.4H104v-11.2h3.9c2.5,0,3.9,1,3.9,2.7c0,1.6-1.2,2.4-1.9,2.5c0.9,0.1,2.5,0.8,2.5,2.9
		C112.4,268.3,111.1,269.4,108.6,269.4z M107.9,259.3h-2.5v3.7h2.4c1.5,0,2.6-0.6,2.6-1.9C110.4,260.1,109.6,259.3,107.9,259.3z
		 M107.9,264.1h-2.5v4.2h3.1c1.7,0,2.5-0.9,2.5-2.1C111,264.8,109.9,264.1,107.9,264.1z"/>
	<path d="M118,269.6c-2.6,0-4-1.6-4-4.4c0-2.7,1.4-4.4,4-4.4c2.6,0,4,1.7,4,4.4C121.9,267.9,120.5,269.6,118,269.6z M118,261.9
		c-1.8,0-2.6,1.3-2.6,3.3c0,2,0.8,3.3,2.6,3.3c1.8,0,2.6-1.3,2.6-3.3C120.6,263.2,119.8,261.9,118,261.9z"/>
</g>
<g class="st1">
	<path d="M127.8,269.6c-2.6,0-4-1.6-4-4.4c0-2.7,1.4-4.4,4-4.4c2.6,0,4,1.7,4,4.4C131.8,267.9,130.4,269.6,127.8,269.6z
		 M127.8,261.9c-1.8,0-2.6,1.3-2.6,3.3c0,2,0.8,3.3,2.6,3.3c1.8,0,2.6-1.3,2.6-3.3C130.4,263.2,129.6,261.9,127.8,261.9z"/>
</g>
<g class="st1">
	<path d="M133.1,261h1.2v-2.1l1.3-0.3v2.4h2.3v1h-2.3v5.5c0,0.7,0.4,0.9,0.8,0.9c0.5,0,1.3-0.3,1.6-0.4l0.5,1
		c-0.4,0.2-1.4,0.6-2.3,0.6c-1.1,0-1.9-0.5-1.9-2.1V262h-1.2V261z"/>
	<path d="M140.1,269.4v-11.7h1.3v11.7H140.1z"/>
	<path d="M147.6,269.6c-2.6,0-4-1.6-4-4.4c0-2.7,1.4-4.4,4-4.4c2.6,0,4,1.7,4,4.4C151.6,267.9,150.2,269.6,147.6,269.6z
		 M147.6,261.9c-1.8,0-2.6,1.3-2.6,3.3c0,2,0.8,3.3,2.6,3.3c1.8,0,2.6-1.3,2.6-3.3C150.2,263.2,149.5,261.9,147.6,261.9z"/>
	<path d="M159.1,268.3c-0.6,0.6-1.7,1.3-3.1,1.3c-1.4,0-2.8-0.8-2.8-2.7c0-1.9,1.4-2.7,2.9-2.7c1,0,2.4,0.3,3,0.4v-0.9
		c0-1.2-0.4-1.8-1.8-1.8c-0.9,0-2,0.3-3.1,0.7l-0.5-1c1.4-0.5,2.7-0.8,3.8-0.8c1.8,0,2.9,0.8,2.9,2.8v5.8h-1.3V268.3z M159.1,267.2
		v-1.8c-0.6-0.1-1.7-0.4-2.5-0.4c-1.5,0-2,0.8-2,1.8c0,1.2,0.8,1.6,1.8,1.6C157.5,268.5,158.4,267.9,159.1,267.2z"/>
	<path d="M168.7,269.4v-1.1c-0.7,0.6-1.6,1.3-3,1.3c-1.8,0-3.2-1.3-3.2-4.4c0-3.1,1.4-4.4,3.2-4.4c1.3,0,2.3,0.7,3,1.3v-4.4h1.3
		v11.7H168.7z M168.7,267.1v-3.8c-0.7-0.8-1.6-1.4-2.7-1.4c-1.4,0-2.1,1.2-2.1,3.3c0,2,0.7,3.3,2.1,3.3
		C167.1,268.5,168,267.9,168.7,267.1z"/>
	<path d="M173.5,265.5c0.1,1.8,1.1,3,2.4,3c1.1,0,2.4-0.7,3.1-1.1l0.6,0.9c-0.8,0.4-2.2,1.3-3.8,1.3c-2,0-3.7-1.5-3.7-4.4
		c0-2.8,1.6-4.4,3.9-4.4c2.4,0,3.6,1.5,3.6,3.6c0,0.6-0.1,1.1-0.1,1.1H173.5z M173.6,264.7h4.8c0-2-0.8-2.8-2.3-2.8
		C174.6,261.8,173.7,262.9,173.6,264.7z"/>
	<path d="M183.2,262.8c0.1-0.3,1-2,3.2-1.9v1.3c-2.9,0-3.2,2.6-3.2,2.6v4.6h-1.3V261h1.3V262.8z"/>
</g>
<rect x="208" y="189" class="st0" width="81" height="54"/>
<g class="st1">
	<path d="M237.4,214.8c0,2.4-1,4.3-4.2,4.3c-3.2,0-4.2-1.9-4.2-4.3v-7.1h1.4v7.2c0,1.7,0.5,3,2.8,3c2.3,0,2.8-1.3,2.8-3v-7.2h1.4
		V214.8z"/>
</g>
<g class="st1">
	<path d="M246.6,216.2h-5.2l-1,2.7h-1.5l4.3-11.2h1.5l4.3,11.2h-1.5L246.6,216.2z M241.8,215h4.4l-2.2-6L241.8,215z"/>
</g>
<g class="st1">
	<path d="M255.1,214.1h-2.7v4.8H251v-11.2h4.4c2.4,0,4.2,0.8,4.2,3.2c0,2-1.2,2.9-3,3.2l3.1,4.8H258L255.1,214.1z M255.4,208.8h-3
		v4.2h2.9c1.6,0,2.8-0.5,2.8-2.1C258.1,209.4,256.9,208.8,255.4,208.8z"/>
</g>
<g class="st1">
	<path d="M265.5,208.9v10h-1.4v-10h-3.5v-1.2h8.4v1.2H265.5z"/>
</g>
<g class="st1">
	<path d="M455.2,315.4h-5.2v-11.2h4.5c2.8,0,4.2,1,4.2,2.7c0,1.6-1.1,2.4-1.8,2.5c0.9,0.1,2.4,0.9,2.4,3
		C459.2,314.2,458,315.4,455.2,315.4z M454.3,306.1h-2v2.6h1.9c1.2,0,2-0.4,2-1.3C456.2,306.5,455.7,306.1,454.3,306.1z
		 M454.4,310.4h-2v3.2h2.4c1.5,0,2.2-0.6,2.2-1.6C456.9,310.9,456,310.4,454.4,310.4z"/>
	<path d="M460.8,315.4v-11.7h2.3v11.7H460.8z"/>
	<path d="M470.8,314.4c-0.8,0.5-1.9,1.2-3.3,1.2c-1.8,0-2.5-1.1-2.5-2.6V307h2.3v5.4c0,0.8,0.2,1.4,1.1,1.4c0.8,0,1.9-0.6,2.4-1.1
		V307h2.3v8.4h-2.3V314.4z"/>
</g>
<g class="st1">
	<path d="M477,311.7c0.1,1.4,0.8,2.2,1.9,2.2c1,0,2.1-0.5,3.1-1l0.9,1.4c-0.7,0.4-2.3,1.3-4.2,1.3c-2.2,0-4-1.4-4-4.4
		c0-2.8,1.6-4.4,4.2-4.4c2.6,0,4,1.6,4,3.7c0,0.7-0.1,1.2-0.1,1.2H477z M477.1,310.5h3.5c0-1.3-0.6-2-1.7-2
		C477.8,308.5,477.2,309.2,477.1,310.5z"/>
</g>
<g class="st1">
	<path d="M483.8,307h1.2v-2.1l2.3-0.3v2.4h2.3v1.7h-2.3v4.1c0,0.7,0.4,0.8,0.7,0.8c0.4,0,1.1-0.3,1.3-0.4l0.8,1.7
		c-0.5,0.2-1.6,0.7-2.7,0.7c-1.6,0-2.4-0.9-2.4-2.8v-4h-1.2V307z"/>
</g>
<g class="st1">
	<path d="M495,315.6c-2.8,0-4.4-1.6-4.4-4.4c0-2.8,1.5-4.4,4.4-4.4c2.8,0,4.3,1.6,4.3,4.4C499.3,314,497.8,315.6,495,315.6z
		 M495,308.6c-1.4,0-2,1-2,2.6c0,1.6,0.6,2.6,2,2.6c1.4,0,2-1,2-2.6C497,309.6,496.4,308.6,495,308.6z"/>
</g>
<g class="st1">
	<path d="M504.9,315.6c-2.8,0-4.4-1.6-4.4-4.4c0-2.8,1.5-4.4,4.4-4.4c2.8,0,4.3,1.6,4.3,4.4C509.2,314,507.7,315.6,504.9,315.6z
		 M504.9,308.6c-1.4,0-2,1-2,2.6c0,1.6,0.6,2.6,2,2.6c1.4,0,2-1,2-2.6C506.9,309.6,506.3,308.6,504.9,308.6z"/>
</g>
<g class="st1">
	<path d="M510.1,307h1.2v-2.1l2.3-0.3v2.4h2.3v1.7h-2.3v4.1c0,0.7,0.4,0.8,0.7,0.8c0.4,0,1.1-0.3,1.3-0.4l0.8,1.7
		c-0.5,0.2-1.6,0.7-2.7,0.7c-1.6,0-2.4-0.9-2.4-2.8v-4h-1.2V307z"/>
	<path d="M519.8,308c0.7-0.5,1.9-1.2,3.3-1.2c1.8,0,2.5,1.1,2.5,2.6v5.9h-2.3V310c0-0.8-0.2-1.4-1.1-1.4c-0.9,0-1.9,0.6-2.4,1.1v5.7
		h-2.3v-11.7h2.3V308z"/>
	<path d="M540.5,312.3c0,2-1.6,3.3-4.1,3.3c-2,0-4-0.8-5.1-1.5l1.1-1.7c1,0.6,2.8,1.2,3.9,1.2c0.9,0,1.7-0.4,1.7-1.2
		c0-1.1-1.6-1.2-3.5-2c-1.3-0.4-2.9-1.2-2.9-3.2c0-1.9,1.5-3.2,4-3.2c1.6,0,3.4,0.5,4.6,1.2l-1.1,1.7c-0.9-0.4-2.4-0.9-3.4-0.9
		c-0.9,0-1.6,0.3-1.6,1.1c0,1.1,1.6,1.1,3.4,1.8C538.8,309.4,540.5,310.2,540.5,312.3z"/>
	<path d="M545.9,315.6c-2.8,0-4.4-1.6-4.4-4.4c0-2.8,1.5-4.4,4.4-4.4c2.8,0,4.3,1.6,4.3,4.4C550.3,314,548.7,315.6,545.9,315.6z
		 M545.9,308.6c-1.4,0-2,1-2,2.6c0,1.6,0.6,2.6,2,2.6c1.4,0,2-1,2-2.6C547.9,309.6,547.3,308.6,545.9,308.6z"/>
	<path d="M559.8,307.4c-1.1-0.6-2.3-1.2-3.4-1.2c-1.5,0-2.4,1.4-2.4,3.6c0,2.2,0.9,3.6,2.4,3.6c1.1,0,2.2-0.6,3.4-1.2l1.1,1.8
		c-1.4,0.8-3,1.6-4.8,1.6c-2.6,0-4.6-1.8-4.6-5.8c0-4,2-5.8,4.6-5.8c1.8,0,3.3,0.8,4.8,1.6L559.8,307.4z"/>
</g>
<g class="st1">
	<path d="M75.6,313.2h-4.4l-0.7,2.2h-2.6l4.2-11.2h2.6l4.2,11.2h-2.6L75.6,313.2z M71.8,311.3H75l-1.6-4.9L71.8,311.3z"/>
	<path d="M82.4,307.9c0.7-0.6,1.6-1.1,2.8-1.1c1.9,0,3.3,1.4,3.3,4.4c0,2.9-1.4,4.4-3.3,4.4c-1.3,0-2.1-0.5-2.8-1.1v4.2h-2.3V307
		h2.3V307.9z M82.4,309.8v2.9c0.6,0.7,1.4,1.1,2.1,1.1c1.1,0,1.6-0.9,1.6-2.5c0-1.6-0.5-2.5-1.6-2.5C83.7,308.7,83,309.1,82.4,309.8
		z"/>
	<path d="M92.4,307.9c0.7-0.6,1.6-1.1,2.8-1.1c1.9,0,3.3,1.4,3.3,4.4c0,2.9-1.4,4.4-3.3,4.4c-1.3,0-2.1-0.5-2.8-1.1v4.2h-2.3V307
		h2.3V307.9z M92.4,309.8v2.9c0.6,0.7,1.4,1.1,2.1,1.1c1.1,0,1.6-0.9,1.6-2.5c0-1.6-0.5-2.5-1.6-2.5C93.7,308.7,93,309.1,92.4,309.8
		z"/>
</g>
<g class="st1">
	<path d="M113.6,308l-2.6,5.5h-1.3l-2.6-5.5v7.3h-2.4v-11.2h2.4l3.2,6.8l3.2-6.8h2.5v11.2h-2.4V308z"/>
</g>
<g class="st1">
	<path d="M118.1,303.8h2.4v2h-2.4V303.8z M118.2,315.4V307h2.3v8.4H118.2z"/>
	<path d="M128.6,309.5c-0.6-0.3-1.5-0.8-2.3-0.8c-1.1,0-1.8,0.9-1.8,2.4c0,1.5,0.7,2.4,1.8,2.4c0.8,0,1.8-0.5,2.3-0.8l0.9,1.7
		c-0.8,0.4-2.2,1-3.6,1c-2,0-3.8-1.4-3.8-4.4c0-3,1.8-4.4,3.8-4.4c1.4,0,2.9,0.7,3.6,1L128.6,309.5z"/>
</g>
<g class="st1">
	<path d="M133.1,308.8c0.2-0.4,1-2,3.2-1.9v2.2c-2.8,0-3.2,2.7-3.2,2.7v3.6h-2.3V307h2.3V308.8z"/>
</g>
<g class="st1">
	<path d="M141.3,315.6c-2.8,0-4.4-1.6-4.4-4.4c0-2.8,1.5-4.4,4.4-4.4c2.8,0,4.3,1.6,4.3,4.4C145.7,314,144.1,315.6,141.3,315.6z
		 M141.3,308.6c-1.4,0-2,1-2,2.6c0,1.6,0.6,2.6,2,2.6c1.4,0,2-1,2-2.6C143.3,309.6,142.7,308.6,141.3,308.6z"/>
</g>
<g class="st1">
	<path d="M153.4,309.5c-0.6-0.3-1.5-0.8-2.3-0.8c-1.1,0-1.8,0.9-1.8,2.4c0,1.5,0.7,2.4,1.8,2.4c0.8,0,1.8-0.5,2.3-0.8l0.9,1.7
		c-0.8,0.4-2.2,1-3.6,1c-2,0-3.8-1.4-3.8-4.4c0-3,1.8-4.4,3.8-4.4c1.4,0,2.9,0.7,3.6,1L153.4,309.5z"/>
</g>
<g class="st1">
	<path d="M159.4,315.6c-2.8,0-4.4-1.6-4.4-4.4c0-2.8,1.5-4.4,4.4-4.4c2.8,0,4.3,1.6,4.3,4.4C163.8,314,162.2,315.6,159.4,315.6z
		 M159.4,308.6c-1.4,0-2,1-2,2.6c0,1.6,0.6,2.6,2,2.6c1.4,0,2-1,2-2.6C161.4,309.6,160.8,308.6,159.4,308.6z"/>
	<path d="M167.7,308c0.7-0.5,1.9-1.2,3.3-1.2c1.8,0,2.5,1.1,2.5,2.6v5.9h-2.3V310c0-0.8-0.2-1.4-1.1-1.4c-0.9,0-1.9,0.6-2.4,1.1v5.7
		h-2.3V307h2.3V308z"/>
	<path d="M174.7,307h1.2v-2.1l2.3-0.3v2.4h2.3v1.7h-2.3v4.1c0,0.7,0.4,0.8,0.7,0.8c0.4,0,1.1-0.3,1.3-0.4l0.8,1.7
		c-0.5,0.2-1.6,0.7-2.7,0.7c-1.6,0-2.4-0.9-2.4-2.8v-4h-1.2V307z"/>
</g>
<g class="st1">
	<path d="M184.4,308.8c0.2-0.4,1-2,3.2-1.9v2.2c-2.8,0-3.2,2.7-3.2,2.7v3.6h-2.3V307h2.3V308.8z"/>
</g>
<g class="st1">
	<path d="M192.6,315.6c-2.8,0-4.4-1.6-4.4-4.4c0-2.8,1.5-4.4,4.4-4.4c2.8,0,4.3,1.6,4.3,4.4C197,314,195.4,315.6,192.6,315.6z
		 M192.6,308.6c-1.4,0-2,1-2,2.6c0,1.6,0.6,2.6,2,2.6c1.4,0,2-1,2-2.6C194.6,309.6,194,308.6,192.6,308.6z"/>
	<path d="M198.6,315.4v-11.7h2.3v11.7H198.6z"/>
	<path d="M203,315.4v-11.7h2.3v11.7H203z"/>
	<path d="M209.2,311.7c0.1,1.4,0.8,2.2,1.9,2.2c1,0,2.1-0.5,3.1-1l0.9,1.4c-0.7,0.4-2.3,1.3-4.2,1.3c-2.2,0-4-1.4-4-4.4
		c0-2.8,1.6-4.4,4.2-4.4c2.6,0,4,1.6,4,3.7c0,0.7-0.1,1.2-0.1,1.2H209.2z M209.3,310.5h3.5c0-1.3-0.6-2-1.7-2
		C210,308.5,209.4,309.2,209.3,310.5z"/>
	<path d="M218.9,308.8c0.2-0.4,1-2,3.2-1.9v2.2c-2.8,0-3.2,2.7-3.2,2.7v3.6h-2.3V307h2.3V308.8z"/>
</g>
<rect x="568" y="90" class="st0" width="81" height="63"/>
<g class="st1">
	<path d="M600.3,124.4h-4.7v-11.2h3.9c2.5,0,3.9,1,3.9,2.7c0,1.6-1.2,2.4-1.9,2.5c0.9,0.1,2.5,0.8,2.5,2.9
		C604.1,123.3,602.8,124.4,600.3,124.4z M599.6,114.3h-2.5v3.7h2.4c1.5,0,2.6-0.6,2.6-1.9C602.1,115.1,601.3,114.3,599.6,114.3z
		 M599.6,119.1h-2.5v4.2h3.1c1.7,0,2.5-0.9,2.5-2.1C602.7,119.8,601.6,119.1,599.6,119.1z"/>
	<path d="M606.4,124.4v-11.2h1.4v10h5.5v1.2H606.4z"/>
	<path d="M615.2,124.4v-11.2h7.1v1.2h-5.7v3.8h4.7v1.2h-4.7v3.8h5.8v1.2H615.2z"/>
</g>
<rect x="721" y="72" class="st0" width="99" height="45"/>
<g class="st1">
	<path d="M759.2,85.8h1.5v1.6h-1.5V85.8z M759.3,97.4V89h1.3v8.4H759.3z"/>
	<path d="M772.7,91.8c0,3.2-1.3,5.8-4.9,5.8c-3.6,0-4.9-2.6-4.9-5.8c0-3.2,1.3-5.8,4.9-5.8C771.4,86,772.7,88.6,772.7,91.8z
		 M771.3,91.8c0-2.5-0.9-4.6-3.5-4.6c-2.6,0-3.5,2-3.5,4.6s0.9,4.6,3.5,4.6C770.5,96.4,771.3,94.3,771.3,91.8z"/>
	<path d="M782.8,94.5c0,2-1.8,3.1-3.8,3.1c-1.7,0-3.5-0.7-4.5-1.4l0.6-1c1,0.6,2.6,1.2,3.9,1.2c1.2,0,2.4-0.6,2.4-1.8
		c0-1.4-1.5-1.8-3.4-2.5c-1.5-0.5-3.2-1.2-3.2-3.1c0-1.9,1.6-3,3.6-3c1.4,0,3,0.5,4,1.1l-0.6,1c-1-0.5-2.4-0.9-3.3-0.9
		c-1.2,0-2.2,0.5-2.2,1.7c0,1.3,1.4,1.6,3.1,2.2C780.8,91.6,782.8,92.4,782.8,94.5z"/>
</g>
<rect x="721" y="18" class="st0" width="99" height="45"/>
<g class="st1">
	<path d="M763.7,37.8c0,3.2-1.3,5.8-4.9,5.8c-3.6,0-4.9-2.6-4.9-5.8c0-3.2,1.3-5.8,4.9-5.8C762.4,32,763.7,34.6,763.7,37.8z
		 M762.3,37.8c0-2.5-0.9-4.6-3.5-4.6c-2.6,0-3.5,2-3.5,4.6s0.9,4.6,3.5,4.6C761.4,42.4,762.3,40.3,762.3,37.8z"/>
	<path d="M773.7,40.5c0,2-1.8,3.1-3.8,3.1c-1.7,0-3.5-0.7-4.5-1.4l0.6-1c1,0.6,2.6,1.2,3.9,1.2c1.2,0,2.4-0.6,2.4-1.8
		c0-1.4-1.5-1.8-3.4-2.5c-1.5-0.5-3.2-1.2-3.2-3.1c0-1.9,1.6-3,3.6-3c1.4,0,3,0.5,4,1.1l-0.6,1c-1-0.5-2.4-0.9-3.3-0.9
		c-1.2,0-2.2,0.5-2.2,1.7c0,1.3,1.4,1.6,3.1,2.2C771.8,37.6,773.7,38.4,773.7,40.5z"/>
</g>
<g class="st1">
	<path d="M780.5,32.2l2.8,4.8l2.9-4.8h1.6l-3.7,5.6l3.9,5.6h-1.6l-3-4.6l-3,4.6h-1.6l3.9-5.6l-3.7-5.6H780.5z"/>
</g>
<rect x="721" y="126" class="st0" width="99" height="45"/>
<g class="st1">
	<path d="M749.3,148.7h-5.2l-1,2.7h-1.5l4.3-11.2h1.5l4.3,11.2h-1.5L749.3,148.7z M744.5,147.5h4.4l-2.2-6L744.5,147.5z"/>
	<path d="M754.8,144.2c0.6-0.5,2-1.4,3.5-1.4c1.8,0,2.4,1.2,2.4,2.6v6h-1.3v-5.7c0-1-0.3-1.7-1.5-1.7c-1.2,0-2.5,0.9-3.1,1.4v6.1
		h-1.3V143h1.3V144.2z"/>
	<path d="M768.9,151.4v-1.1c-0.7,0.6-1.6,1.3-3,1.3c-1.8,0-3.2-1.3-3.2-4.4c0-3.1,1.4-4.4,3.2-4.4c1.3,0,2.3,0.7,3,1.3v-4.4h1.3
		v11.7H768.9z M768.9,149.1v-3.8c-0.7-0.8-1.6-1.4-2.7-1.4c-1.4,0-2.1,1.2-2.1,3.3c0,2,0.7,3.3,2.1,3.3
		C767.2,150.5,768.2,149.9,768.9,149.1z"/>
</g>
<g class="st1">
	<path d="M773.8,144.8c0.1-0.3,1-2,3.2-1.9v1.3c-2.9,0-3.2,2.6-3.2,2.6v4.6h-1.3V143h1.3V144.8z"/>
</g>
<g class="st1">
	<path d="M781.7,151.6c-2.6,0-4-1.6-4-4.4c0-2.7,1.4-4.4,4-4.4c2.6,0,4,1.7,4,4.4C785.6,149.9,784.2,151.6,781.7,151.6z
		 M781.7,143.9c-1.8,0-2.6,1.3-2.6,3.3c0,2,0.8,3.3,2.6,3.3c1.8,0,2.6-1.3,2.6-3.3C784.3,145.2,783.5,143.9,781.7,143.9z"/>
	<path d="M787.7,139.8h1.5v1.6h-1.5V139.8z M787.8,151.4V143h1.3v8.4H787.8z"/>
	<path d="M797.4,151.4v-1.1c-0.7,0.6-1.6,1.3-3,1.3c-1.8,0-3.2-1.3-3.2-4.4c0-3.1,1.4-4.4,3.2-4.4c1.3,0,2.3,0.7,3,1.3v-4.4h1.3
		v11.7H797.4z M797.4,149.1v-3.8c-0.7-0.8-1.6-1.4-2.7-1.4c-1.4,0-2.1,1.2-2.1,3.3c0,2,0.7,3.3,2.1,3.3
		C795.8,150.5,796.8,149.9,797.4,149.1z"/>
</g>
<rect x="721" y="180" class="st0" width="99" height="45"/>
<g class="st1">
	<path d="M743.9,196.1l-2.4,9.3H740l-3.1-11.2h1.6l2.4,9.6l2.5-9.6h1.3l2.5,9.5l2.4-9.5h1.5l-3.1,11.2h-1.5L743.9,196.1z"/>
	<path d="M752.7,193.8h1.5v1.6h-1.5V193.8z M752.8,205.4V197h1.3v8.4H752.8z"/>
	<path d="M758,198.2c0.6-0.5,2-1.4,3.5-1.4c1.8,0,2.4,1.2,2.4,2.6v6h-1.3v-5.7c0-1-0.3-1.7-1.5-1.7c-1.2,0-2.5,0.9-3.1,1.4v6.1h-1.3
		V197h1.3V198.2z"/>
	<path d="M772.1,205.4v-1.1c-0.7,0.6-1.6,1.3-3,1.3c-1.8,0-3.2-1.3-3.2-4.4c0-3.1,1.4-4.4,3.2-4.4c1.3,0,2.3,0.7,3,1.3v-4.4h1.3
		v11.7H772.1z M772.1,203.1v-3.8c-0.7-0.8-1.6-1.4-2.7-1.4c-1.4,0-2.1,1.2-2.1,3.3c0,2,0.7,3.3,2.1,3.3
		C770.5,204.5,771.5,203.9,772.1,203.1z"/>
</g>
<g class="st1">
	<path d="M779.1,205.6c-2.6,0-4-1.6-4-4.4c0-2.7,1.4-4.4,4-4.4c2.6,0,4,1.7,4,4.4C783.1,203.9,781.7,205.6,779.1,205.6z
		 M779.1,197.9c-1.8,0-2.6,1.3-2.6,3.3c0,2,0.8,3.3,2.6,3.3c1.8,0,2.6-1.3,2.6-3.3C781.7,199.2,780.9,197.9,779.1,197.9z"/>
</g>
<g class="st1">
	<path d="M790.2,198.6l-2.1,6.8h-1.3l-2.6-8.4h1.4l1.9,7l2-7h1.2l2,7l1.9-7h1.4l-2.7,8.4h-1.3L790.2,198.6z"/>
</g>
<g class="st1">
	<path d="M804.1,203.2c0,1.6-1.4,2.3-3.1,2.3c-1.5,0-2.9-0.6-3.7-1l0.6-1c0.8,0.4,2.1,0.9,3.1,0.9c0.9,0,1.8-0.4,1.8-1.2
		c0-1-1.4-1.4-2.5-1.6c-1.3-0.4-2.8-0.9-2.8-2.5c0-1.5,1.2-2.3,2.9-2.3c1.3,0,2.5,0.5,3.3,0.8l-0.6,0.9c-0.8-0.4-1.9-0.7-2.7-0.7
		c-1,0-1.7,0.4-1.7,1.2c0,1,1.4,1.3,2.3,1.5C802.9,201.1,804.1,201.8,804.1,203.2z"/>
</g>
<line class="st3" x1="725.5" y1="63" x2="649" y2="101.2"/>
<line class="st3" x1="721" y1="102.8" x2="649" y2="114.8"/>
<line class="st3" x1="721" y1="140.2" x2="649" y2="128.2"/>
<line class="st3" x1="725.5" y1="180" x2="649" y2="141.8"/>
<path d="M474.5,227.3v-11.2h1.7v9.7h5.5v1.5H474.5L474.5,227.3z"/>
<path d="M483.1,215.7h1.8v1.7h-1.8V215.7z M483.1,227.3v-8.4h1.6v8.4H483.1z"/>
<path d="M494.6,218.9v8.7c0,2.2-1.3,3.1-3.4,3.1c-1.4,0-2.7-0.2-4.1-0.6c0.1-0.5,0.2-0.9,0.3-1.3c1.1,0.3,2.3,0.6,3.5,0.6
	c1.3,0,2-0.5,2-1.7v-1.4c-0.8,0.8-1.8,1.2-2.9,1.2c-1.8,0-3.2-1.3-3.2-4.4s1.4-4.4,3.2-4.4c1.1,0,2.1,0.5,2.9,1.2v-1L494.6,218.9
	L494.6,218.9z M492.9,224.9v-3.5c-0.6-0.7-1.5-1.2-2.5-1.3c-1.3,0-2,1.1-2,3s0.7,3,2,3C491.4,226.1,492.3,225.6,492.9,224.9
	L492.9,224.9z"/>
<path d="M498.6,220c1-0.8,2.2-1.2,3.4-1.3c1.8,0,2.4,1.1,2.4,2.6v6h-1.7v-5.6c0-0.9-0.3-1.6-1.3-1.6c-1.1,0.1-2.1,0.6-2.9,1.3v6H497
	v-11.7h1.6L498.6,220L498.6,220z"/>
<path d="M506,218.9h1.2v-2.1l1.6-0.3v2.4h2.3v1.2h-2.3v5c-0.1,0.4,0.2,0.8,0.5,0.8c0.1,0,0.2,0,0.2,0c0.5-0.1,1-0.2,1.5-0.4l0.6,1.2
	c-0.8,0.4-1.6,0.6-2.5,0.6c-1.2,0-2.1-0.6-2.1-2.4v-5H506V218.9z"/>
<path d="M518.2,227.3h-4.9v-11.2h4.1c2.6,0,4,1,4,2.7c0,1.2-0.7,2.2-1.9,2.5c1.5,0.2,2.6,1.5,2.5,3
	C522,226.1,520.7,227.3,518.2,227.3z M517.4,217.5H515v3.3h2.3c1.4,0,2.4-0.5,2.4-1.7C519.7,218.1,519,217.5,517.4,217.5
	L517.4,217.5z M517.4,222.1H515v3.9h2.9c1.6,0,2.4-0.8,2.4-1.9C520.3,222.7,519.3,222.1,517.4,222.1L517.4,222.1z"/>
<path d="M523.9,227.3v-11.7h1.7v11.7H523.9z"/>
<path d="M533.8,226.2c-1,0.8-2.2,1.2-3.4,1.3c-1.8,0-2.4-1.1-2.4-2.6v-6h1.7v5.6c0,0.9,0.3,1.6,1.3,1.6c1.1-0.1,2-0.6,2.8-1.3v-6
	h1.7v8.4h-1.7L533.8,226.2L533.8,226.2z"/>
<path d="M539.1,223.5c0.1,1.7,1,2.7,2.2,2.7c1.1-0.1,2.2-0.5,3.1-1.1l0.7,1.1c-1.2,0.8-2.6,1.2-4,1.3c-2.1,0-3.8-1.4-3.8-4.4
	s1.6-4.4,4-4.4c1.9-0.2,3.5,1.2,3.7,3.1c0,0.2,0,0.4,0,0.6c0,0.4,0,0.7-0.1,1.1L539.1,223.5L539.1,223.5z M539.1,222.5h4.3
	c0-1.8-0.8-2.5-2.1-2.5S539.2,220.9,539.1,222.5L539.1,222.5z"/>
<path d="M555.9,223.1h-2.5v4.2h-1.7v-11.2h4.2c2.6,0,4.3,1,4.3,3.5S558.5,223.1,555.9,223.1z M555.9,217.6h-2.5v4.1h2.5
	c1.4,0,2.6-0.5,2.6-2S557.3,217.6,555.9,217.6L555.9,217.6z"/>
<path d="M561.9,227.3v-11.7h1.7v11.7H561.9z"/>
<path d="M571.4,226.2c-0.8,0.8-1.9,1.2-3.1,1.2c-1.4,0.1-2.7-0.9-2.8-2.4c0-0.1,0-0.2,0-0.3c-0.1-1.5,1.1-2.7,2.6-2.8
	c0.1,0,0.3,0,0.4,0c1,0.1,2,0.2,3,0.4v-0.9c0-1.1-0.4-1.6-1.7-1.6c-1.1,0.1-2.1,0.3-3.1,0.7l-0.6-1.2c1.3-0.5,2.6-0.8,3.9-0.8
	c2,0,3.1,0.8,3.1,2.9v5.7h-1.7L571.4,226.2L571.4,226.2z M571.4,225v-1.6c-0.8-0.2-1.6-0.3-2.3-0.3c-1.4,0-1.9,0.7-1.9,1.6
	c-0.1,0.8,0.5,1.4,1.3,1.5c0.1,0,0.2,0,0.3,0C569.8,226.1,570.7,225.7,571.4,225L571.4,225z"/>
<path d="M574.6,218.9h1.2v-2.1l1.6-0.3v2.4h2.3v1.2h-2.3v5c-0.1,0.4,0.2,0.8,0.5,0.8c0.1,0,0.2,0,0.2,0c0.5-0.1,1-0.2,1.5-0.4
	l0.6,1.2c-0.8,0.4-1.6,0.6-2.5,0.6c-1.2,0-2.1-0.6-2.1-2.4v-5h-1.2V218.9z"/>
<path d="M580.9,218.9h1.2V218c0-1.7,0.8-2.4,2-2.4c0.7,0,1.4,0.2,2.1,0.5l-0.4,1.2c-0.4-0.1-0.9-0.2-1.3-0.3c-0.4,0-0.7,0.2-0.8,0.6
	c0,0.1,0,0.2,0,0.2v1h2.2v1.2h-2.2v7.1h-1.6v-7.1h-1.2V218.9z"/>
<path d="M591,227.5c-2.7,0-4.1-1.6-4.1-4.4s1.4-4.4,4.1-4.4s4.1,1.6,4.1,4.4S593.6,227.5,591,227.5z M591,220
	c-1.7,0-2.4,1.2-2.4,3.1s0.7,3.1,2.4,3.1s2.4-1.2,2.4-3.1S592.6,220,591,220L591,220z"/>
<path d="M598.7,220.7c0.5-1.3,1.8-2,3.2-1.9v1.6c-1.6-0.1-3,1.1-3.2,2.7v4.3H597v-8.4h1.7L598.7,220.7L598.7,220.7z"/>
<path d="M605,220.1c0.8-0.8,1.9-1.3,3-1.4c1-0.1,2,0.5,2.2,1.5c0.8-0.9,2-1.4,3.2-1.5c1.8,0,2.4,1.1,2.4,2.6v6h-1.6v-5.6
	c0-0.9-0.2-1.6-1.3-1.6c-1,0.1-1.9,0.6-2.5,1.4v5.9h-1.6v-5.6c0-0.9-0.3-1.6-1.3-1.6c-1,0.1-1.8,0.6-2.5,1.3v5.9h-1.7v-8.4h1.6
	V220.1L605,220.1z"/>
<path d="M514.3,237.8v3.4h4.5v1.5h-4.5v4.9h-1.7v-11.2h7.3v1.5H514.3L514.3,237.8z"/>
<path d="M521.5,235.9h1.8v1.7h-1.8V235.9z M521.5,247.5v-8.4h1.7v8.4H521.5z"/>
<path d="M527.2,240.9c0.5-1.3,1.8-2,3.2-1.9v1.6c-1.6-0.1-3,1.1-3.2,2.7v4.3h-1.7v-8.4h1.7V240.9L527.2,240.9z"/>
<path d="M533.6,240.3c0.8-0.8,1.9-1.3,3-1.4c1-0.1,2,0.5,2.2,1.5c0.8-0.9,2-1.4,3.2-1.5c1.8,0,2.4,1.1,2.4,2.6v6h-1.7v-5.6
	c0-0.9-0.2-1.6-1.3-1.6c-1,0.1-1.9,0.6-2.5,1.4v5.9h-1.6v-5.6c0-0.9-0.3-1.6-1.3-1.6c-1,0.1-1.8,0.6-2.5,1.3v5.9h-1.7v-8.4h1.7
	L533.6,240.3L533.6,240.3z"/>
<path d="M552.1,241.1l-1.9,6.4h-1.6l-2.6-8.4h1.8l1.8,6.7l1.9-6.7h1.4l1.9,6.7l1.8-6.7h1.7l-2.6,8.4H554L552.1,241.1z"/>
<path d="M565.1,246.4c-0.8,0.8-1.9,1.2-3.1,1.2c-1.4,0.1-2.7-0.9-2.8-2.4c0-0.1,0-0.2,0-0.3c-0.1-1.5,1.1-2.7,2.6-2.8
	c0.1,0,0.3,0,0.4,0c1,0.1,2,0.2,3,0.4v-0.9c0-1.1-0.4-1.6-1.7-1.6c-1.1,0.1-2.1,0.3-3.1,0.7l-0.6-1.2c1.3-0.5,2.6-0.8,3.9-0.8
	c2,0,3.1,0.8,3.1,2.9v5.7h-1.7L565.1,246.4L565.1,246.4z M565.1,245.2v-1.6c-0.8-0.2-1.6-0.3-2.3-0.3c-1.4,0-1.9,0.7-1.9,1.6
	c-0.1,0.8,0.5,1.4,1.3,1.5c0.1,0,0.2,0,0.3,0C563.5,246.3,564.4,245.9,565.1,245.2z"/>
<path d="M570.8,240.9c0.5-1.3,1.8-2,3.2-1.9v1.6c-1.6-0.1-3,1.1-3.2,2.7v4.3h-1.7v-8.4h1.7L570.8,240.9L570.8,240.9z"/>
<path d="M576.5,243.7c0.1,1.7,1,2.7,2.2,2.7c1.1-0.1,2.2-0.5,3.1-1.1l0.7,1.1c-1.2,0.8-2.6,1.2-4,1.3c-2.1,0-3.8-1.4-3.8-4.4
	s1.6-4.4,4-4.4c1.9-0.2,3.5,1.2,3.7,3.1c0,0.2,0,0.4,0,0.6c0,0.4,0,0.7-0.1,1.1L576.5,243.7L576.5,243.7z M576.5,242.7h4.3
	c0-1.8-0.8-2.5-2.1-2.5S576.7,241.1,576.5,242.7L576.5,242.7z"/>
<rect x="1" y="108" class="st4" width="288" height="0.1"/>
<polyline class="st5" points="118,84.9 118,105.5 118,126.1 "/>
<polygon points="118,135.7 121.6,126.1 114.4,126.1 "/>
<polygon class="st6" points="118,135.7 121.6,126.1 114.4,126.1 "/>
<polygon points="118,75.3 114.4,84.9 121.6,84.9 "/>
<polygon class="st6" points="118,75.3 114.4,84.9 121.6,84.9 "/>
<rect x="1" y="216" class="st4" width="207" height="0.1"/>
<g class="st1">
	<path d="M412.3,126.4h-4.7v-11.2h3.9c2.5,0,3.9,1,3.9,2.7c0,1.6-1.2,2.4-1.9,2.5c0.9,0.1,2.5,0.8,2.5,2.9
		C416,125.3,414.8,126.4,412.3,126.4z M411.6,116.3H409v3.7h2.4c1.5,0,2.6-0.6,2.6-1.9C414.1,117.1,413.3,116.3,411.6,116.3z
		 M411.6,121.1H409v4.2h3.1c1.7,0,2.5-0.9,2.5-2.1C414.7,121.8,413.6,121.1,411.6,121.1z"/>
	<path d="M418.2,126.4v-11.7h1.3v11.7H418.2z"/>
	<path d="M428,125.2c-0.6,0.5-2,1.3-3.5,1.3c-1.8,0-2.4-1.2-2.4-2.6v-6h1.3v5.7c0,1,0.3,1.7,1.5,1.7c1.2,0,2.5-0.9,3.1-1.4V118h1.3
		v8.4H428V125.2z"/>
</g>
<g class="st1">
	<path d="M432.8,122.5c0.1,1.8,1.1,3,2.4,3c1.1,0,2.4-0.7,3.1-1.1l0.6,0.9c-0.8,0.4-2.2,1.3-3.8,1.3c-2,0-3.7-1.5-3.7-4.4
		c0-2.8,1.6-4.4,3.9-4.4c2.4,0,3.6,1.5,3.6,3.6c0,0.6-0.1,1.1-0.1,1.1H432.8z M432.8,121.7h4.8c0-2-0.8-2.8-2.3-2.8
		C433.9,118.8,433,119.9,432.8,121.7z"/>
</g>
<g class="st1">
	<path d="M440.3,118h1.2v-2.1l1.3-0.3v2.4h2.3v1h-2.3v5.5c0,0.7,0.4,0.9,0.8,0.9c0.5,0,1.3-0.3,1.6-0.4l0.5,1
		c-0.4,0.2-1.4,0.6-2.3,0.6c-1.1,0-1.9-0.5-1.9-2.1V119h-1.2V118z"/>
</g>
<g class="st1">
	<path d="M450.6,126.6c-2.6,0-4-1.6-4-4.4c0-2.7,1.4-4.4,4-4.4c2.6,0,4,1.7,4,4.4C454.6,124.9,453.2,126.6,450.6,126.6z
		 M450.6,118.9c-1.8,0-2.6,1.3-2.6,3.3c0,2,0.8,3.3,2.6,3.3c1.8,0,2.6-1.3,2.6-3.3C453.2,120.2,452.4,118.9,450.6,118.9z"/>
</g>
<g class="st1">
	<path d="M460.3,126.6c-2.6,0-4-1.6-4-4.4c0-2.7,1.4-4.4,4-4.4c2.6,0,4,1.7,4,4.4C464.2,124.9,462.8,126.6,460.3,126.6z
		 M460.3,118.9c-1.8,0-2.6,1.3-2.6,3.3c0,2,0.8,3.3,2.6,3.3c1.8,0,2.6-1.3,2.6-3.3C462.9,120.2,462.1,118.9,460.3,118.9z"/>
</g>
<g class="st1">
	<path d="M465.5,118h1.2v-2.1l1.3-0.3v2.4h2.3v1H468v5.5c0,0.7,0.4,0.9,0.8,0.9c0.5,0,1.3-0.3,1.6-0.4l0.5,1
		c-0.4,0.2-1.4,0.6-2.3,0.6c-1.1,0-1.9-0.5-1.9-2.1V119h-1.2V118z"/>
	<path d="M473.7,119.2c0.6-0.5,2-1.4,3.5-1.4c1.8,0,2.4,1.2,2.4,2.6v6h-1.3v-5.7c0-1-0.3-1.7-1.5-1.7c-1.2,0-2.5,0.9-3.1,1.4v6.1
		h-1.3v-11.7h1.3V119.2z"/>
</g>
<g class="st1">
	<path d="M494.3,123.5c0,2-1.8,3.1-3.8,3.1c-1.7,0-3.5-0.7-4.5-1.4l0.6-1c1,0.6,2.6,1.2,3.9,1.2c1.2,0,2.4-0.6,2.4-1.8
		c0-1.4-1.5-1.8-3.4-2.5c-1.5-0.5-3.2-1.2-3.2-3.1c0-1.9,1.6-3,3.6-3c1.4,0,3,0.5,4,1.1l-0.6,1c-1-0.5-2.4-0.9-3.3-0.9
		c-1.2,0-2.2,0.5-2.2,1.7c0,1.3,1.4,1.6,3.1,2.2C492.3,120.6,494.3,121.4,494.3,123.5z"/>
</g>
<g class="st1">
	<path d="M495.3,118h1.2v-2.1l1.3-0.3v2.4h2.3v1h-2.3v5.5c0,0.7,0.4,0.9,0.8,0.9c0.5,0,1.3-0.3,1.6-0.4l0.5,1
		c-0.4,0.2-1.4,0.6-2.3,0.6c-1.1,0-1.9-0.5-1.9-2.1V119h-1.2V118z"/>
	<path d="M507.6,125.3c-0.6,0.6-1.7,1.3-3.1,1.3c-1.4,0-2.8-0.8-2.8-2.7c0-1.9,1.4-2.7,2.9-2.7c1,0,2.4,0.3,3,0.4v-0.9
		c0-1.2-0.4-1.8-1.8-1.8c-0.9,0-2,0.3-3.1,0.7l-0.5-1c1.4-0.5,2.7-0.8,3.8-0.8c1.8,0,2.9,0.8,2.9,2.8v5.8h-1.3V125.3z M507.6,124.2
		v-1.8c-0.6-0.1-1.7-0.4-2.5-0.4c-1.5,0-2,0.8-2,1.8c0,1.2,0.8,1.6,1.8,1.6C505.9,125.5,506.8,124.9,507.6,124.2z"/>
	<path d="M517.3,119.9c-0.4-0.2-1.5-0.9-2.5-0.9c-1.4,0-2.4,1.2-2.4,3.2c0,2,1,3.2,2.4,3.2c1,0,2.1-0.7,2.5-0.9l0.6,1
		c-0.6,0.4-1.9,1.1-3.2,1.1c-1.9,0-3.7-1.5-3.7-4.4c0-2.9,1.8-4.4,3.7-4.4c1.3,0,2.6,0.7,3.2,1.1L517.3,119.9z"/>
	<path d="M523.3,121.4l3.4,5h-1.4l-2.7-4.1l-1.4,1.7v2.4h-1.3v-11.7h1.3v7.7l3.5-4.4h1.5L523.3,121.4z"/>
</g>
</svg>
